<svg width="247" height="53" viewBox="0 0 247 53" fill="none" xmlns="http://www.w3.org/2000/svg">
<path d="M4.99241 7.2714H23.81V8.69231H6.41333V19.522H21.5442V20.9429H6.41333V32.5791H23.81V34H4.99241V7.2714ZM34.3798 34V7.2714H35.8007V32.5791H54.4263V34H34.3798ZM87.7014 7.2714C89.6472 7.2714 91.4393 7.75784 93.0779 8.73072C94.742 9.7036 96.0605 11.0221 97.0334 12.6862C98.0063 14.3248 98.4927 16.1169 98.4927 18.0627V23.2087C98.4927 25.1545 98.0063 26.9594 97.0334 28.6236C96.0605 30.2621 94.742 31.5678 93.0779 32.5407C91.4393 33.5136 89.6472 34 87.7014 34H77.8318V7.2714H87.7014ZM97.0718 18.0627C97.0718 16.3729 96.6494 14.8112 95.8045 13.3775C94.9596 11.9438 93.8075 10.8045 92.3482 9.95962C90.9145 9.11475 89.3528 8.69231 87.663 8.69231H79.2527V32.5791H87.663C89.3528 32.5791 90.9145 32.1566 92.3482 31.3118C93.8075 30.4669 94.9596 29.3276 95.8045 27.8939C96.6494 26.4602 97.0718 24.8984 97.0718 23.2087V18.0627ZM116.398 6.69535C118.395 6.69535 120.238 7.19459 121.928 8.19307C123.617 9.16595 124.949 10.4973 125.922 12.187C126.92 13.8767 127.419 15.7201 127.419 17.7171V23.5543C127.419 25.5513 126.92 27.3947 125.922 29.0844C124.949 30.7741 123.617 32.1182 121.928 33.1167C120.238 34.0896 118.395 34.576 116.398 34.576C114.401 34.576 112.557 34.0896 110.868 33.1167C109.178 32.1182 107.834 30.7741 106.835 29.0844C105.862 27.3947 105.376 25.5513 105.376 23.5543V17.7171C105.376 15.7201 105.862 13.8767 106.835 12.187C107.834 10.4973 109.178 9.16595 110.868 8.19307C112.557 7.19459 114.401 6.69535 116.398 6.69535ZM106.797 23.5543C106.797 25.2953 107.219 26.9082 108.064 28.3931C108.935 29.8525 110.099 31.0174 111.559 31.8878C113.044 32.7327 114.657 33.1551 116.398 33.1551C118.139 33.1551 119.739 32.7327 121.198 31.8878C122.683 31.0174 123.848 29.8525 124.693 28.3931C125.563 26.9082 125.998 25.2953 125.998 23.5543V17.7171C125.998 15.9761 125.563 14.376 124.693 12.9167C123.848 11.4317 122.683 10.2668 121.198 9.42197C119.739 8.5515 118.139 8.11627 116.398 8.11627C114.657 8.11627 113.044 8.5515 111.559 9.42197C110.099 10.2668 108.935 11.4317 108.064 12.9167C107.219 14.376 106.797 15.9761 106.797 17.7171V23.5543ZM150.624 8.15467C152.16 8.87153 153.363 9.93402 154.234 11.3421C155.13 12.7502 155.578 14.312 155.578 16.0273C155.578 18.0243 154.963 19.8164 153.734 21.4038C152.531 22.9655 150.982 24.0024 149.088 24.5144L155.885 34H154.195L147.628 24.7832L146.399 24.8216H136.76V34H135.339V7.2714H145.516C146.643 7.2714 147.603 7.3482 148.396 7.50181C149.216 7.62983 149.958 7.84744 150.624 8.15467ZM146.783 23.4007C148.115 23.4007 149.344 23.0679 150.47 22.4022C151.597 21.7366 152.493 20.8405 153.158 19.714C153.824 18.5875 154.157 17.3586 154.157 16.0273C154.157 14.5424 153.76 13.1983 152.966 11.995C152.198 10.7917 151.123 9.89561 149.741 9.30677C148.742 8.89713 147.334 8.69231 145.516 8.69231H136.76V23.4007H146.783ZM172.523 7.2714H174.02L185.004 34H183.468L179.858 25.1673H166.685L163.037 34H161.539L172.523 7.2714ZM167.261 23.7848H179.282L173.252 9.11475L167.261 23.7848ZM201.411 7.2714C203.357 7.2714 205.149 7.75784 206.787 8.73072C208.451 9.7036 209.77 11.0221 210.743 12.6862C211.716 14.3248 212.202 16.1169 212.202 18.0627V23.2087C212.202 25.1545 211.716 26.9594 210.743 28.6236C209.77 30.2621 208.451 31.5678 206.787 32.5407C205.149 33.5136 203.357 34 201.411 34H191.541V7.2714H201.411ZM210.781 18.0627C210.781 16.3729 210.359 14.8112 209.514 13.3775C208.669 11.9438 207.517 10.8045 206.058 9.95962C204.624 9.11475 203.062 8.69231 201.372 8.69231H192.962V32.5791H201.372C203.062 32.5791 204.624 32.1566 206.058 31.3118C207.517 30.4669 208.669 29.3276 209.514 27.8939C210.359 26.4602 210.781 24.8984 210.781 23.2087V18.0627ZM230.107 6.69535C232.104 6.69535 233.947 7.19459 235.637 8.19307C237.327 9.16595 238.658 10.4973 239.631 12.187C240.629 13.8767 241.129 15.7201 241.129 17.7171V23.5543C241.129 25.5513 240.629 27.3947 239.631 29.0844C238.658 30.7741 237.327 32.1182 235.637 33.1167C233.947 34.0896 232.104 34.576 230.107 34.576C228.11 34.576 226.267 34.0896 224.577 33.1167C222.887 32.1182 221.543 30.7741 220.545 29.0844C219.572 27.3947 219.085 25.5513 219.085 23.5543V17.7171C219.085 15.7201 219.572 13.8767 220.545 12.187C221.543 10.4973 222.887 9.16595 224.577 8.19307C226.267 7.19459 228.11 6.69535 230.107 6.69535ZM220.506 23.5543C220.506 25.2953 220.929 26.9082 221.773 28.3931C222.644 29.8525 223.809 31.0174 225.268 31.8878C226.753 32.7327 228.366 33.1551 230.107 33.1551C231.848 33.1551 233.448 32.7327 234.907 31.8878C236.392 31.0174 237.557 29.8525 238.402 28.3931C239.273 26.9082 239.708 25.2953 239.708 23.5543V17.7171C239.708 15.9761 239.273 14.376 238.402 12.9167C237.557 11.4317 236.392 10.2668 234.907 9.42197C233.448 8.5515 231.848 8.11627 230.107 8.11627C228.366 8.11627 226.753 8.5515 225.268 9.42197C223.809 10.2668 222.644 11.4317 221.773 12.9167C220.929 14.376 220.506 15.9761 220.506 17.7171V23.5543Z" fill="#FAF729"/>
<path d="M4.99241 7.2714V6.87665H4.59767V7.2714H4.99241ZM23.81 7.2714H24.2047V6.87665H23.81V7.2714ZM23.81 8.69231V9.08706H24.2047V8.69231H23.81ZM6.41333 8.69231V8.29757H6.01858V8.69231H6.41333ZM6.41333 19.522H6.01858V19.9168H6.41333V19.522ZM21.5442 19.522H21.9389V19.1273H21.5442V19.522ZM21.5442 20.9429V21.3377H21.9389V20.9429H21.5442ZM6.41333 20.9429V20.5482H6.01858V20.9429H6.41333ZM6.41333 32.5791H6.01858V32.9738H6.41333V32.5791ZM23.81 32.5791H24.2047V32.1843H23.81V32.5791ZM23.81 34V34.3947H24.2047V34H23.81ZM4.99241 34H4.59767V34.3947H4.99241V34ZM4.99241 7.66614H23.81V6.87665H4.99241V7.66614ZM23.4152 7.2714V8.69231H24.2047V7.2714H23.4152ZM23.81 8.29757H6.41333V9.08706H23.81V8.29757ZM6.01858 8.69231V19.522H6.80808V8.69231H6.01858ZM6.41333 19.9168H21.5442V19.1273H6.41333V19.9168ZM21.1494 19.522V20.9429H21.9389V19.522H21.1494ZM21.5442 20.5482H6.41333V21.3377H21.5442V20.5482ZM6.01858 20.9429V32.5791H6.80808V20.9429H6.01858ZM6.41333 32.9738H23.81V32.1843H6.41333V32.9738ZM23.4152 32.5791V34H24.2047V32.5791H23.4152ZM23.81 33.6053H4.99241V34.3947H23.81V33.6053ZM5.38716 34V7.2714H4.59767V34H5.38716ZM34.3798 34H33.9851V34.3947H34.3798V34ZM34.3798 7.2714V6.87665H33.9851V7.2714H34.3798ZM35.8007 7.2714H36.1955V6.87665H35.8007V7.2714ZM35.8007 32.5791H35.406V32.9738H35.8007V32.5791ZM54.4263 32.5791H54.821V32.1843H54.4263V32.5791ZM54.4263 34V34.3947H54.821V34H54.4263ZM34.7746 34V7.2714H33.9851V34H34.7746ZM34.3798 7.66614H35.8007V6.87665H34.3798V7.66614ZM35.406 7.2714V32.5791H36.1955V7.2714H35.406ZM35.8007 32.9738H54.4263V32.1843H35.8007V32.9738ZM54.0315 32.5791V34H54.821V32.5791H54.0315ZM54.4263 33.6053H34.3798V34.3947H54.4263V33.6053ZM93.0779 8.73072L92.8763 9.07015L92.8786 9.0715L93.0779 8.73072ZM97.0334 12.6862L96.6926 12.8855L96.694 12.8878L97.0334 12.6862ZM97.0334 28.6236L97.3728 28.8251L97.3742 28.8228L97.0334 28.6236ZM93.0779 32.5407L92.8786 32.1999L92.8763 32.2013L93.0779 32.5407ZM77.8318 34H77.4371V34.3947H77.8318V34ZM77.8318 7.2714V6.87665H77.4371V7.2714H77.8318ZM95.8045 13.3775L95.4644 13.5779L95.4644 13.5779L95.8045 13.3775ZM92.3482 9.95962L92.1478 10.2997L92.1504 10.3012L92.3482 9.95962ZM79.2527 8.69231V8.29757H78.858V8.69231H79.2527ZM79.2527 32.5791H78.858V32.9738H79.2527V32.5791ZM92.3482 31.3118L92.1504 30.9701L92.1478 30.9717L92.3482 31.3118ZM95.8045 27.8939L95.4644 27.6935L95.4644 27.6935L95.8045 27.8939ZM87.7014 7.66614C89.5778 7.66614 91.3001 8.13427 92.8763 9.07014L93.2794 8.39129C91.5785 7.38141 89.7165 6.87665 87.7014 6.87665V7.66614ZM92.8786 9.0715C94.4842 10.0101 95.754 11.2799 96.6926 12.8855L97.3742 12.487C96.3671 10.7643 94.9998 9.39705 93.2771 8.38993L92.8786 9.0715ZM96.694 12.8878C97.6298 14.464 98.098 16.1863 98.098 18.0627H98.8875C98.8875 16.0476 98.3827 14.1856 97.3728 12.4847L96.694 12.8878ZM98.098 18.0627V23.2087H98.8875V18.0627H98.098ZM98.098 23.2087C98.098 25.0851 97.6298 26.8212 96.6926 28.4243L97.3742 28.8228C98.3827 27.0976 98.8875 25.2238 98.8875 23.2087H98.098ZM96.694 28.422C95.7557 30.0023 94.4857 31.2604 92.8786 32.1999L93.2771 32.8815C94.9983 31.8752 96.3654 30.5219 97.3728 28.8251L96.694 28.422ZM92.8763 32.2013C91.3001 33.1371 89.5778 33.6053 87.7014 33.6053V34.3947C89.7165 34.3947 91.5785 33.89 93.2794 32.8801L92.8763 32.2013ZM87.7014 33.6053H77.8318V34.3947H87.7014V33.6053ZM78.2266 34V7.2714H77.4371V34H78.2266ZM77.8318 7.66614H87.7014V6.87665H77.8318V7.66614ZM97.4665 18.0627C97.4665 16.3036 97.0258 14.6725 96.1446 13.1771L95.4644 13.5779C96.2729 14.9499 96.6771 16.4423 96.6771 18.0627H97.4665ZM96.1446 13.1771C95.2647 11.684 94.0633 10.4964 92.546 9.61799L92.1504 10.3012C93.5518 11.1125 94.6545 12.2035 95.4644 13.5779L96.1446 13.1771ZM92.5486 9.61953C91.0532 8.7383 89.4221 8.29757 87.663 8.29757V9.08706C89.2834 9.08706 90.7758 9.4912 92.1478 10.2997L92.5486 9.61953ZM87.663 8.29757H79.2527V9.08706H87.663V8.29757ZM78.858 8.69231V32.5791H79.6475V8.69231H78.858ZM79.2527 32.9738H87.663V32.1843H79.2527V32.9738ZM87.663 32.9738C89.4221 32.9738 91.0532 32.5331 92.5486 31.6519L92.1478 30.9717C90.7758 31.7802 89.2834 32.1843 87.663 32.1843V32.9738ZM92.546 31.6534C94.0633 30.775 95.2647 29.5874 96.1446 28.0943L95.4644 27.6935C94.6545 29.0679 93.5518 30.1589 92.1504 30.9702L92.546 31.6534ZM96.1446 28.0943C97.0258 26.5989 97.4665 24.9678 97.4665 23.2087H96.6771C96.6771 24.8291 96.2729 26.3215 95.4644 27.6935L96.1446 28.0943ZM97.4665 23.2087V18.0627H96.6771V23.2087H97.4665ZM121.928 8.19307L121.727 8.53294L121.731 8.53517L121.928 8.19307ZM125.922 12.187L125.579 12.384L125.582 12.3878L125.922 12.187ZM125.922 29.0844L125.582 28.8836L125.579 28.8874L125.922 29.0844ZM121.928 33.1167L122.125 33.4588L122.128 33.4566L121.928 33.1167ZM110.868 33.1167L110.667 33.4566L110.671 33.4588L110.868 33.1167ZM106.835 29.0844L106.493 29.2814L106.495 29.2852L106.835 29.0844ZM106.835 12.187L106.495 11.9862L106.493 11.99L106.835 12.187ZM110.868 8.19307L111.065 8.53519L111.068 8.53292L110.868 8.19307ZM108.064 28.3931L107.721 28.5884L107.725 28.5954L108.064 28.3931ZM111.559 31.8878L111.357 32.2269L111.364 32.2309L111.559 31.8878ZM121.198 31.8878L121.396 32.2295L121.398 32.2284L121.198 31.8878ZM124.693 28.3931L124.352 28.1935L124.351 28.1954L124.693 28.3931ZM124.693 12.9167L124.349 13.1119L124.354 13.1189L124.693 12.9167ZM121.198 9.42197L120.996 9.76106L121.003 9.76507L121.198 9.42197ZM111.559 9.42197L111.757 9.7636L111.758 9.76252L111.559 9.42197ZM108.064 12.9167L107.724 12.717L107.722 12.7189L108.064 12.9167ZM116.398 7.0901C118.325 7.0901 120.099 7.57103 121.727 8.53292L122.128 7.85322C120.377 6.81815 118.464 6.3006 116.398 6.3006V7.0901ZM121.731 8.53517C123.36 9.47332 124.641 10.7546 125.579 12.384L126.264 11.99C125.256 10.24 123.875 8.85859 122.125 7.85098L121.731 8.53517ZM125.582 12.3878C126.544 14.0156 127.025 15.7894 127.025 17.7171H127.814C127.814 15.6507 127.296 13.7378 126.261 11.9862L125.582 12.3878ZM127.025 17.7171V23.5543H127.814V17.7171H127.025ZM127.025 23.5543C127.025 25.482 126.544 27.2558 125.582 28.8836L126.261 29.2852C127.296 27.5335 127.814 25.6207 127.814 23.5543H127.025ZM125.579 28.8874C124.641 30.5177 123.358 31.8128 121.727 32.7769L122.128 33.4566C123.876 32.4237 125.257 31.0305 126.264 29.2814L125.579 28.8874ZM121.731 32.7746C120.102 33.7122 118.327 34.1813 116.398 34.1813V34.9708C118.462 34.9708 120.373 34.4671 122.125 33.4588L121.731 32.7746ZM116.398 34.1813C114.468 34.1813 112.693 33.7122 111.064 32.7746L110.671 33.4588C112.422 34.4671 114.333 34.9708 116.398 34.9708V34.1813ZM111.068 32.7769C109.436 31.8123 108.14 30.516 107.175 28.8836L106.495 29.2852C107.528 31.0323 108.92 32.4242 110.667 33.4566L111.068 32.7769ZM107.177 28.8874C106.24 27.2591 105.771 25.4839 105.771 23.5543H104.981C104.981 25.6187 105.485 27.5302 106.493 29.2814L107.177 28.8874ZM105.771 23.5543V17.7171H104.981V23.5543H105.771ZM105.771 17.7171C105.771 15.7875 106.24 14.0123 107.177 12.384L106.493 11.99C105.485 13.7412 104.981 15.6527 104.981 17.7171H105.771ZM107.175 12.3878C108.139 10.7563 109.434 9.47383 111.064 8.53517L110.671 7.85098C108.921 8.85807 107.528 10.2382 106.495 11.9862L107.175 12.3878ZM111.068 8.53292C112.696 7.57103 114.47 7.0901 116.398 7.0901V6.3006C114.331 6.3006 112.418 6.81815 110.667 7.85322L111.068 8.53292ZM106.402 23.5543C106.402 25.3624 106.842 27.0428 107.721 28.5883L108.407 28.1979C107.597 26.7737 107.192 25.2282 107.192 23.5543H106.402ZM107.725 28.5954C108.629 30.1109 109.841 31.3228 111.357 32.2268L111.761 31.5488C110.358 30.7119 109.24 29.594 108.403 28.1909L107.725 28.5954ZM111.364 32.2309C112.909 33.1103 114.59 33.5499 116.398 33.5499V32.7604C114.724 32.7604 113.178 32.3551 111.754 31.5447L111.364 32.2309ZM116.398 33.5499C118.206 33.5499 119.874 33.1103 121.396 32.2294L121 31.5462C119.603 32.3551 118.071 32.7604 116.398 32.7604V33.5499ZM121.398 32.2284C122.94 31.3241 124.154 30.1106 125.034 28.5909L124.351 28.1954C123.541 29.5943 122.426 30.7106 120.998 31.5473L121.398 32.2284ZM125.033 28.5928C125.94 27.0466 126.393 25.3646 126.393 23.5543H125.604C125.604 25.2259 125.187 26.7699 124.352 28.1935L125.033 28.5928ZM126.393 23.5543V17.7171H125.604V23.5543H126.393ZM126.393 17.7171C126.393 15.9068 125.94 14.2365 125.032 12.7144L124.354 13.1189C125.187 14.5155 125.604 16.0455 125.604 17.7171H126.393ZM125.036 12.7215C124.156 11.1748 122.94 9.95885 121.393 9.07887L121.003 9.76507C122.426 10.5748 123.54 11.6886 124.35 13.1119L125.036 12.7215ZM121.4 9.08296C119.878 8.17508 118.208 7.72152 116.398 7.72152V8.51101C118.069 8.51101 119.599 8.92792 120.996 9.76099L121.4 9.08296ZM116.398 7.72152C114.587 7.72152 112.905 8.17504 111.359 9.08143L111.758 9.76252C113.182 8.92796 114.726 8.51101 116.398 8.51101V7.72152ZM111.361 9.08035C109.841 9.96015 108.628 11.1745 107.724 12.717L108.405 13.1163C109.241 11.689 110.358 10.5735 111.757 9.7636L111.361 9.08035ZM107.722 12.7189C106.842 14.2403 106.402 15.909 106.402 17.7171H107.192C107.192 16.0432 107.597 14.5117 108.406 13.1144L107.722 12.7189ZM106.402 17.7171V23.5543H107.192V17.7171H106.402ZM150.624 8.15467L150.791 7.79695L150.789 7.79626L150.624 8.15467ZM154.234 11.3421L153.898 11.5497L153.901 11.5541L154.234 11.3421ZM153.734 21.4038L153.422 21.1621L153.422 21.1628L153.734 21.4038ZM149.088 24.5144L148.985 24.1333L148.435 24.2818L148.767 24.7444L149.088 24.5144ZM155.885 34V34.3947H156.654L156.206 33.7701L155.885 34ZM154.195 34L153.874 34.2291L153.992 34.3947H154.195V34ZM147.628 24.7832L147.95 24.5542L147.827 24.3821L147.616 24.3887L147.628 24.7832ZM146.399 24.8216V25.2166L146.412 25.2162L146.399 24.8216ZM136.76 24.8216V24.4269H136.366V24.8216H136.76ZM136.76 34V34.3947H137.155V34H136.76ZM135.339 34H134.945V34.3947H135.339V34ZM135.339 7.2714V6.87665H134.945V7.2714H135.339ZM148.396 7.50181L148.321 7.88937L148.328 7.89073L148.335 7.89183L148.396 7.50181ZM150.47 22.4022L150.269 22.0624L150.269 22.0624L150.47 22.4022ZM153.158 19.714L152.819 19.5132L152.819 19.5132L153.158 19.714ZM152.966 11.995L152.634 12.2074L152.637 12.2123L152.966 11.995ZM149.741 9.30677L149.895 8.94356L149.89 8.94156L149.741 9.30677ZM136.76 8.69231V8.29757H136.366V8.69231H136.76ZM136.76 23.4007H136.366V23.7955H136.76V23.4007ZM150.457 8.51238C151.925 9.19754 153.069 10.2087 153.898 11.5497L154.569 11.1346C153.658 9.65938 152.395 8.54552 150.791 7.79696L150.457 8.51238ZM153.901 11.5541C154.755 12.897 155.183 14.3849 155.183 16.0273H155.973C155.973 14.2391 155.504 12.6035 154.567 11.1302L153.901 11.5541ZM155.183 16.0273C155.183 17.9363 154.598 19.6436 153.422 21.1621L154.047 21.6454C155.329 19.9893 155.973 18.1123 155.973 16.0273H155.183ZM153.422 21.1628C152.271 22.6565 150.795 23.6439 148.985 24.1333L149.191 24.8955C151.169 24.3608 152.791 23.2745 154.047 21.6447L153.422 21.1628ZM148.767 24.7444L155.564 34.2299L156.206 33.7701L149.409 24.2845L148.767 24.7444ZM155.885 33.6053H154.195V34.3947H155.885V33.6053ZM154.517 33.7709L147.95 24.5542L147.307 25.0123L153.874 34.2291L154.517 33.7709ZM147.616 24.3887L146.387 24.4271L146.412 25.2162L147.641 25.1778L147.616 24.3887ZM146.399 24.4269H136.76V25.2164H146.399V24.4269ZM136.366 24.8216V34H137.155V24.8216H136.366ZM136.76 33.6053H135.339V34.3947H136.76V33.6053ZM135.734 34V7.2714H134.945V34H135.734ZM135.339 7.66614H145.516V6.87665H135.339V7.66614ZM145.516 7.66614C146.627 7.66614 147.56 7.74199 148.321 7.88937L148.471 7.11426C147.646 6.95441 146.659 6.87665 145.516 6.87665V7.66614ZM148.335 7.89183C149.123 8.01492 149.83 8.22303 150.458 8.51308L150.789 7.79626C150.086 7.47186 149.308 7.24473 148.457 7.1118L148.335 7.89183ZM146.783 23.7955C148.184 23.7955 149.483 23.4443 150.671 22.7421L150.269 22.0624C149.205 22.6915 148.045 23.006 146.783 23.006V23.7955ZM150.671 22.7421C151.855 22.0426 152.799 21.0987 153.498 19.9148L152.819 19.5132C152.187 20.5824 151.339 21.4306 150.269 22.0624L150.671 22.7421ZM153.498 19.9148C154.201 18.7264 154.552 17.428 154.552 16.0273H153.762C153.762 17.2893 153.448 18.4486 152.819 19.5132L153.498 19.9148ZM154.552 16.0273C154.552 14.4676 154.133 13.0475 153.296 11.7776L152.637 12.2123C153.387 13.3491 153.762 14.6172 153.762 16.0273H154.552ZM153.299 11.7826C152.486 10.5086 151.347 9.56188 149.895 8.94359L149.586 9.66994C150.899 10.2294 151.911 11.0748 152.634 12.2074L153.299 11.7826ZM149.89 8.94156C148.823 8.5035 147.355 8.29757 145.516 8.29757V9.08706C147.313 9.08706 148.662 9.29076 149.591 9.67197L149.89 8.94156ZM145.516 8.29757H136.76V9.08706H145.516V8.29757ZM136.366 8.69231V23.4007H137.155V8.69231H136.366ZM136.76 23.7955H146.783V23.006H136.76V23.7955ZM172.523 7.2714V6.87665H172.258L172.157 7.12136L172.523 7.2714ZM174.02 7.2714L174.385 7.12136L174.285 6.87665H174.02V7.2714ZM185.004 34V34.3947H185.593L185.369 33.85L185.004 34ZM183.468 34L183.102 34.1493L183.202 34.3947H183.468V34ZM179.858 25.1673L180.223 25.0179L180.123 24.7725H179.858V25.1673ZM166.685 25.1673V24.7725H166.421L166.32 25.0166L166.685 25.1673ZM163.037 34V34.3947H163.301L163.402 34.1507L163.037 34ZM161.539 34L161.174 33.85L160.95 34.3947H161.539V34ZM167.261 23.7848L166.896 23.6355L166.674 24.1795H167.261V23.7848ZM179.282 23.7848V24.1795H179.871L179.647 23.6347L179.282 23.7848ZM173.252 9.11475L173.617 8.96469L173.251 8.07349L172.887 8.96551L173.252 9.11475ZM172.523 7.66614H174.02V6.87665H172.523V7.66614ZM173.655 7.42143L184.639 34.15L185.369 33.85L174.385 7.12136L173.655 7.42143ZM185.004 33.6053H183.468V34.3947H185.004V33.6053ZM183.833 33.8507L180.223 25.0179L179.492 25.3166L183.102 34.1493L183.833 33.8507ZM179.858 24.7725H166.685V25.562H179.858V24.7725ZM166.32 25.0166L162.672 33.8493L163.402 34.1507L167.05 25.318L166.32 25.0166ZM163.037 33.6053H161.539V34.3947H163.037V33.6053ZM161.904 34.15L172.888 7.42143L172.157 7.12136L161.174 33.85L161.904 34.15ZM167.261 24.1795H179.282V23.39H167.261V24.1795ZM179.647 23.6347L173.617 8.96469L172.887 9.26481L178.916 23.9348L179.647 23.6347ZM172.887 8.96551L166.896 23.6355L167.627 23.934L173.618 9.26399L172.887 8.96551ZM206.787 8.73072L206.586 9.07015L206.588 9.0715L206.787 8.73072ZM210.743 12.6862L210.402 12.8855L210.403 12.8878L210.743 12.6862ZM210.743 28.6236L211.082 28.8251L211.084 28.8228L210.743 28.6236ZM206.787 32.5407L206.588 32.1999L206.586 32.2013L206.787 32.5407ZM191.541 34H191.146V34.3947H191.541V34ZM191.541 7.2714V6.87665H191.146V7.2714H191.541ZM209.514 13.3775L209.174 13.5779L209.174 13.5779L209.514 13.3775ZM206.058 9.95962L205.857 10.2997L205.86 10.3012L206.058 9.95962ZM192.962 8.69231V8.29757H192.567V8.69231H192.962ZM192.962 32.5791H192.567V32.9738H192.962V32.5791ZM206.058 31.3118L205.86 30.9701L205.857 30.9717L206.058 31.3118ZM209.514 27.8939L209.174 27.6935L209.174 27.6935L209.514 27.8939ZM201.411 7.66614C203.287 7.66614 205.009 8.13427 206.586 9.07014L206.989 8.39129C205.288 7.38141 203.426 6.87665 201.411 6.87665V7.66614ZM206.588 9.0715C208.194 10.0101 209.463 11.2799 210.402 12.8855L211.084 12.487C210.076 10.7643 208.709 9.39705 206.986 8.38993L206.588 9.0715ZM210.403 12.8878C211.339 14.464 211.807 16.1863 211.807 18.0627H212.597C212.597 16.0476 212.092 14.1856 211.082 12.4847L210.403 12.8878ZM211.807 18.0627V23.2087H212.597V18.0627H211.807ZM211.807 23.2087C211.807 25.0851 211.339 26.8212 210.402 28.4243L211.084 28.8228C212.092 27.0976 212.597 25.2238 212.597 23.2087H211.807ZM210.403 28.422C209.465 30.0023 208.195 31.2604 206.588 32.1999L206.986 32.8815C208.708 31.8752 210.075 30.5219 211.082 28.8251L210.403 28.422ZM206.586 32.2013C205.009 33.1371 203.287 33.6053 201.411 33.6053V34.3947C203.426 34.3947 205.288 33.89 206.989 32.8801L206.586 32.2013ZM201.411 33.6053H191.541V34.3947H201.411V33.6053ZM191.936 34V7.2714H191.146V34H191.936ZM191.541 7.66614H201.411V6.87665H191.541V7.66614ZM211.176 18.0627C211.176 16.3036 210.735 14.6725 209.854 13.1771L209.174 13.5779C209.982 14.9499 210.386 16.4423 210.386 18.0627H211.176ZM209.854 13.1771C208.974 11.684 207.773 10.4964 206.255 9.61799L205.86 10.3012C207.261 11.1125 208.364 12.2035 209.174 13.5779L209.854 13.1771ZM206.258 9.61953C204.763 8.7383 203.131 8.29757 201.372 8.29757V9.08706C202.993 9.08706 204.485 9.4912 205.857 10.2997L206.258 9.61953ZM201.372 8.29757H192.962V9.08706H201.372V8.29757ZM192.567 8.69231V32.5791H193.357V8.69231H192.567ZM192.962 32.9738H201.372V32.1843H192.962V32.9738ZM201.372 32.9738C203.131 32.9738 204.763 32.5331 206.258 31.6519L205.857 30.9717C204.485 31.7802 202.993 32.1843 201.372 32.1843V32.9738ZM206.255 31.6534C207.773 30.775 208.974 29.5874 209.854 28.0943L209.174 27.6935C208.364 29.0679 207.261 30.1589 205.86 30.9702L206.255 31.6534ZM209.854 28.0943C210.735 26.5989 211.176 24.9678 211.176 23.2087H210.386C210.386 24.8291 209.982 26.3215 209.174 27.6935L209.854 28.0943ZM211.176 23.2087V18.0627H210.386V23.2087H211.176ZM235.637 8.19307L235.436 8.53294L235.44 8.53517L235.637 8.19307ZM239.631 12.187L239.289 12.384L239.291 12.3878L239.631 12.187ZM239.631 29.0844L239.291 28.8836L239.289 28.8874L239.631 29.0844ZM235.637 33.1167L235.834 33.4588L235.838 33.4566L235.637 33.1167ZM224.577 33.1167L224.376 33.4566L224.38 33.4588L224.577 33.1167ZM220.545 29.0844L220.202 29.2814L220.205 29.2852L220.545 29.0844ZM220.545 12.187L220.205 11.9862L220.202 11.99L220.545 12.187ZM224.577 8.19307L224.774 8.53519L224.778 8.53292L224.577 8.19307ZM221.773 28.3931L221.43 28.5884L221.434 28.5954L221.773 28.3931ZM225.268 31.8878L225.066 32.2269L225.073 32.2309L225.268 31.8878ZM234.907 31.8878L235.105 32.2295L235.107 32.2284L234.907 31.8878ZM238.402 28.3931L238.061 28.1935L238.06 28.1954L238.402 28.3931ZM238.402 12.9167L238.059 13.1119L238.063 13.1189L238.402 12.9167ZM234.907 9.42197L234.705 9.76106L234.712 9.76507L234.907 9.42197ZM225.268 9.42197L225.466 9.7636L225.468 9.76252L225.268 9.42197ZM221.773 12.9167L221.433 12.717L221.432 12.7189L221.773 12.9167ZM230.107 7.0901C232.035 7.0901 233.808 7.57103 235.436 8.53292L235.838 7.85322C234.086 6.81815 232.173 6.3006 230.107 6.3006V7.0901ZM235.44 8.53517C237.069 9.47332 238.351 10.7546 239.289 12.384L239.973 11.99C238.965 10.24 237.584 8.85859 235.834 7.85098L235.44 8.53517ZM239.291 12.3878C240.253 14.0156 240.734 15.7894 240.734 17.7171H241.523C241.523 15.6507 241.006 13.7378 239.971 11.9862L239.291 12.3878ZM240.734 17.7171V23.5543H241.523V17.7171H240.734ZM240.734 23.5543C240.734 25.482 240.253 27.2558 239.291 28.8836L239.971 29.2852C241.006 27.5335 241.523 25.6207 241.523 23.5543H240.734ZM239.289 28.8874C238.35 30.5177 237.068 31.8128 235.436 32.7769L235.838 33.4566C237.586 32.4237 238.966 31.0305 239.973 29.2814L239.289 28.8874ZM235.44 32.7746C233.812 33.7122 232.037 34.1813 230.107 34.1813V34.9708C232.171 34.9708 234.083 34.4671 235.834 33.4588L235.44 32.7746ZM230.107 34.1813C228.177 34.1813 226.402 33.7122 224.774 32.7746L224.38 33.4588C226.131 34.4671 228.043 34.9708 230.107 34.9708V34.1813ZM224.778 32.7769C223.145 31.8123 221.849 30.516 220.884 28.8836L220.205 29.2852C221.237 31.0323 222.629 32.4242 224.376 33.4566L224.778 32.7769ZM220.887 28.8874C219.949 27.2591 219.48 25.4839 219.48 23.5543H218.69C218.69 25.6187 219.194 27.5302 220.202 29.2814L220.887 28.8874ZM219.48 23.5543V17.7171H218.69V23.5543H219.48ZM219.48 17.7171C219.48 15.7875 219.949 14.0123 220.887 12.384L220.202 11.99C219.194 13.7412 218.69 15.6527 218.69 17.7171H219.48ZM220.884 12.3878C221.848 10.7563 223.144 9.47383 224.774 8.53517L224.38 7.85098C222.631 8.85807 221.238 10.2382 220.205 11.9862L220.884 12.3878ZM224.778 8.53292C226.406 7.57103 228.179 7.0901 230.107 7.0901V6.3006C228.041 6.3006 226.128 6.81815 224.376 7.85322L224.778 8.53292ZM220.111 23.5543C220.111 25.3624 220.551 27.0428 221.43 28.5883L222.117 28.1979C221.306 26.7737 220.901 25.2282 220.901 23.5543H220.111ZM221.434 28.5954C222.338 30.1109 223.55 31.3228 225.066 32.2268L225.47 31.5488C224.067 30.7119 222.949 29.594 222.112 28.1909L221.434 28.5954ZM225.073 32.2309C226.619 33.1103 228.299 33.5499 230.107 33.5499V32.7604C228.433 32.7604 226.888 32.3551 225.463 31.5447L225.073 32.2309ZM230.107 33.5499C231.915 33.5499 233.584 33.1103 235.105 32.2294L234.71 31.5462C233.312 32.3551 231.781 32.7604 230.107 32.7604V33.5499ZM235.107 32.2284C236.649 31.3241 237.864 30.1106 238.744 28.5909L238.06 28.1954C237.25 29.5943 236.135 30.7106 234.708 31.5473L235.107 32.2284ZM238.743 28.5928C239.649 27.0466 240.102 25.3646 240.102 23.5543H239.313C239.313 25.2259 238.896 26.7699 238.061 28.1935L238.743 28.5928ZM240.102 23.5543V17.7171H239.313V23.5543H240.102ZM240.102 17.7171C240.102 15.9068 239.649 14.2365 238.741 12.7144L238.063 13.1189C238.896 14.5155 239.313 16.0455 239.313 17.7171H240.102ZM238.745 12.7215C237.865 11.1748 236.649 9.95885 235.103 9.07887L234.712 9.76507C236.135 10.5748 237.249 11.6886 238.059 13.1119L238.745 12.7215ZM235.11 9.08296C233.588 8.17508 231.917 7.72152 230.107 7.72152V8.51101C231.779 8.51101 233.309 8.92792 234.705 9.76099L235.11 9.08296ZM230.107 7.72152C228.297 7.72152 226.615 8.17504 225.069 9.08143L225.468 9.76252C226.891 8.92796 228.435 8.51101 230.107 8.51101V7.72152ZM225.07 9.08035C223.551 9.96015 222.337 11.1745 221.433 12.717L222.114 13.1163C222.951 11.689 224.067 10.5735 225.466 9.7636L225.07 9.08035ZM221.432 12.7189C220.551 14.2403 220.111 15.909 220.111 17.7171H220.901C220.901 16.0432 221.306 14.5117 222.115 13.1144L221.432 12.7189ZM220.111 17.7171V23.5543H220.901V17.7171H220.111Z" fill="#FAF729"/>
<path d="M230.144 27.2827C229.474 24.4462 227.26 22.2315 224.423 21.5621C227.26 20.8928 229.474 18.6781 230.144 15.8415C230.813 18.6781 233.028 20.8928 235.864 21.5621C233.028 22.2315 230.813 24.4462 230.144 27.2827Z" fill="#FAF729"/>
<path d="M116.612 27.2827C115.943 24.4462 113.728 22.2315 110.891 21.5621C113.728 20.8928 115.943 18.6781 116.612 15.8415C117.281 18.6781 119.496 20.8928 122.333 21.5621C119.496 22.2315 117.281 24.4462 116.612 27.2827Z" fill="#FAF729"/>
<path d="M186.579 46.6448C186.064 44.4628 184.361 42.7592 182.179 42.2443C184.361 41.7295 186.064 40.0258 186.579 37.8439C187.094 40.0258 188.798 41.7295 190.98 42.2443C188.798 42.7592 187.094 44.4628 186.579 46.6448Z" fill="#FAF729"/>
<path d="M61.6063 37.8438C61.0915 35.6618 59.3878 33.9582 57.2059 33.4433C59.3878 32.9284 61.0915 31.2248 61.6063 29.0428C62.1212 31.2248 63.8249 32.9284 66.0068 33.4433C63.8249 33.9582 62.1212 35.6618 61.6063 37.8438Z" fill="#FAF729"/>
<path d="M196.7 52.8054L196.575 52.2754C196.291 51.0729 195.352 50.1339 194.15 49.8502L193.62 49.7251L194.15 49.6C195.352 49.3163 196.291 48.3773 196.575 47.1748L196.7 46.6448L196.825 47.1748C197.109 48.3773 198.048 49.3163 199.251 49.6L199.781 49.7251L199.251 49.8502C198.048 50.1339 197.109 51.0729 196.825 52.2754L196.7 52.8054Z" fill="#FAF729"/>
<path d="M244.14 5.74316L244.099 5.56922C243.816 4.36666 242.877 3.42771 241.674 3.14394L241.5 3.10289L241.674 3.06185C242.877 2.77808 243.816 1.83912 244.099 0.636563L244.14 0.462621L244.181 0.636562C244.465 1.83912 245.404 2.77808 246.607 3.06185L246.781 3.10289L246.607 3.14394C245.404 3.42771 244.465 4.36666 244.181 5.56922L244.14 5.74316Z" fill="#FAF729"/>
</svg>
